<svg width="120" height="120" viewBox="0 0 120 120" fill="none" xmlns="http://www.w3.org/2000/svg">
  <rect width="120" height="120" rx="24" fill="#F5F5F5"/>
  <path d="M60 30 C50 30 42 38 42 48 C42 50 42 52 43 54 C35 56 30 63 30 72 C30 82 38 90 48 90 L72 90 C82 90 90 82 90 72 C90 63 85 56 77 54 C78 52 78 50 78 48 C78 38 70 30 60 30 Z" fill="#0866FF"/>
  <path d="M60 30 C50 30 42 38 42 48 C42 50 42 52 43 54 C35 56 30 63 30 72 C30 82 38 90 48 90 L72 90 C82 90 90 82 90 72 C90 63 85 56 77 54 C78 52 78 50 78 48 C78 38 70 30 60 30 Z" fill="url(#metaGrad)"/>
  <defs>
    <linearGradient id="metaGrad" x1="30" y1="30" x2="90" y2="90" gradientUnits="userSpaceOnUse">
      <stop stop-color="#0081FB"/>
      <stop offset="0.5" stop-color="#0064E0"/>
      <stop offset="1" stop-color="#023FA1"/>
    </linearGradient>
  </defs>
</svg>
